<mxfile host="65bd71144e">
    <diagram id="J5sNGLrvIwUCoanL-hpi" name="Página-1">
        <mxGraphModel dx="1913" dy="825" grid="1" gridSize="10" guides="1" tooltips="1" connect="1" arrows="1" fold="1" page="1" pageScale="1" pageWidth="827" pageHeight="1169" background="#ffffff" math="0" shadow="0">
            <root>
                <mxCell id="0"/>
                <mxCell id="1" parent="0"/>
                <mxCell id="61" value="" style="whiteSpace=wrap;html=1;aspect=fixed;shadow=1;" parent="1" vertex="1">
                    <mxGeometry y="15" width="1055" height="1055" as="geometry"/>
                </mxCell>
                <mxCell id="49" value="" style="ellipse;whiteSpace=wrap;html=1;aspect=fixed;" parent="1" vertex="1">
                    <mxGeometry x="801.5" y="412" width="145" height="145" as="geometry"/>
                </mxCell>
                <mxCell id="48" value="" style="ellipse;whiteSpace=wrap;html=1;aspect=fixed;shadow=1;" parent="1" vertex="1">
                    <mxGeometry x="116.5" y="662" width="145" height="145" as="geometry"/>
                </mxCell>
                <mxCell id="47" value="" style="ellipse;whiteSpace=wrap;html=1;aspect=fixed;shadow=1;" parent="1" vertex="1">
                    <mxGeometry x="116.5" y="112" width="145" height="145" as="geometry"/>
                </mxCell>
                <mxCell id="5" value="Peladeiro" style="shape=umlActor;verticalLabelPosition=bottom;verticalAlign=top;html=1;shadow=1;" parent="1" vertex="1">
                    <mxGeometry x="164" y="132" width="50" height="90" as="geometry"/>
                </mxCell>
                <mxCell id="9" value="Editor" style="shape=umlActor;verticalLabelPosition=bottom;verticalAlign=top;html=1;shadow=1;" parent="1" vertex="1">
                    <mxGeometry x="164" y="672" width="50" height="100" as="geometry"/>
                </mxCell>
                <mxCell id="10" value="Administrador" style="shape=umlActor;verticalLabelPosition=bottom;verticalAlign=top;html=1;shadow=1;" parent="1" vertex="1">
                    <mxGeometry x="844" y="422" width="60" height="100" as="geometry"/>
                </mxCell>
                <mxCell id="11" value="" style="rounded=0;whiteSpace=wrap;html=1;direction=south;" parent="1" vertex="1">
                    <mxGeometry x="355.5" y="52" width="344" height="950" as="geometry"/>
                </mxCell>
                <mxCell id="12" value="&lt;span style=&quot;font-weight: normal;&quot;&gt;&lt;font style=&quot;font-size: 17px;&quot;&gt;Ações Fut&lt;/font&gt;&lt;/span&gt;" style="text;strokeColor=default;fillColor=none;html=1;fontSize=24;fontStyle=1;verticalAlign=middle;align=center;shadow=1;" parent="1" vertex="1">
                    <mxGeometry x="355.5" y="52" width="86" height="28" as="geometry"/>
                </mxCell>
                <mxCell id="13" value="Buscar Historico do Fut" style="ellipse;whiteSpace=wrap;html=1;shadow=1;" parent="1" vertex="1">
                    <mxGeometry x="484" y="132" width="100" height="70" as="geometry"/>
                </mxCell>
                <mxCell id="14" value="Iniciar Ciclo de Partidas" style="ellipse;whiteSpace=wrap;html=1;shadow=1;" parent="1" vertex="1">
                    <mxGeometry x="484" y="222" width="100" height="70" as="geometry"/>
                </mxCell>
                <mxCell id="17" value="Encerrar Ciclo de Partidas" style="ellipse;whiteSpace=wrap;html=1;shadow=1;" parent="1" vertex="1">
                    <mxGeometry x="484" y="572" width="100" height="70" as="geometry"/>
                </mxCell>
                <mxCell id="19" value="Adicionar aos Banidos" style="ellipse;whiteSpace=wrap;html=1;shadow=1;" parent="1" vertex="1">
                    <mxGeometry x="484" y="652" width="100" height="70" as="geometry"/>
                </mxCell>
                <mxCell id="20" value="Remover dos Banidos" style="ellipse;whiteSpace=wrap;html=1;shadow=1;" parent="1" vertex="1">
                    <mxGeometry x="484" y="737" width="100" height="70" as="geometry"/>
                </mxCell>
                <mxCell id="21" value="Adicionar Gols na Partidas" style="ellipse;whiteSpace=wrap;html=1;shadow=1;" parent="1" vertex="1">
                    <mxGeometry x="484" y="402" width="100" height="70" as="geometry"/>
                </mxCell>
                <mxCell id="22" value="Adicionar Cartões na Partidas" style="ellipse;whiteSpace=wrap;html=1;shadow=1;" parent="1" vertex="1">
                    <mxGeometry x="484" y="487" width="100" height="70" as="geometry"/>
                </mxCell>
                <mxCell id="23" value="&amp;nbsp;Promover a Editor" style="ellipse;whiteSpace=wrap;html=1;shadow=1;" parent="1" vertex="1">
                    <mxGeometry x="484" y="832" width="100" height="70" as="geometry"/>
                </mxCell>
                <mxCell id="24" value="&amp;nbsp;Remover Promoção a Editor" style="ellipse;whiteSpace=wrap;html=1;shadow=1;" parent="1" vertex="1">
                    <mxGeometry x="484" y="922" width="100" height="70" as="geometry"/>
                </mxCell>
                <mxCell id="43" value="" style="endArrow=none;html=1;exitX=1;exitY=1;exitDx=0;exitDy=0;entryX=0.321;entryY=0.028;entryDx=0;entryDy=0;entryPerimeter=0;shadow=1;" parent="1" source="13" target="49" edge="1">
                    <mxGeometry width="50" height="50" relative="1" as="geometry">
                        <mxPoint x="494" y="462" as="sourcePoint"/>
                        <mxPoint x="544" y="412" as="targetPoint"/>
                    </mxGeometry>
                </mxCell>
                <mxCell id="44" value="" style="endArrow=none;html=1;exitX=0.94;exitY=0.343;exitDx=0;exitDy=0;exitPerimeter=0;entryX=0.238;entryY=0.097;entryDx=0;entryDy=0;entryPerimeter=0;shadow=1;" parent="1" source="14" target="49" edge="1">
                    <mxGeometry width="50" height="50" relative="1" as="geometry">
                        <mxPoint x="579" y="202" as="sourcePoint"/>
                        <mxPoint x="854" y="454" as="targetPoint"/>
                    </mxGeometry>
                </mxCell>
                <mxCell id="45" value="" style="endArrow=none;html=1;exitX=0.95;exitY=0.757;exitDx=0;exitDy=0;exitPerimeter=0;entryX=0.107;entryY=0.234;entryDx=0;entryDy=0;entryPerimeter=0;shadow=1;" parent="1" source="21" target="49" edge="1">
                    <mxGeometry width="50" height="50" relative="1" as="geometry">
                        <mxPoint x="588" y="256" as="sourcePoint"/>
                        <mxPoint x="854" y="459" as="targetPoint"/>
                    </mxGeometry>
                </mxCell>
                <mxCell id="46" value="" style="endArrow=none;html=1;exitX=0.98;exitY=0.414;exitDx=0;exitDy=0;exitPerimeter=0;entryX=0.024;entryY=0.407;entryDx=0;entryDy=0;entryPerimeter=0;shadow=1;" parent="1" source="22" target="49" edge="1">
                    <mxGeometry width="50" height="50" relative="1" as="geometry">
                        <mxPoint x="589" y="375" as="sourcePoint"/>
                        <mxPoint x="854" y="471" as="targetPoint"/>
                    </mxGeometry>
                </mxCell>
                <mxCell id="50" value="" style="endArrow=none;html=1;exitX=1;exitY=0.5;exitDx=0;exitDy=0;entryX=-0.024;entryY=0.559;entryDx=0;entryDy=0;entryPerimeter=0;shadow=1;" parent="1" source="17" target="49" edge="1">
                    <mxGeometry width="50" height="50" relative="1" as="geometry">
                        <mxPoint x="592" y="441" as="sourcePoint"/>
                        <mxPoint x="815" y="481" as="targetPoint"/>
                    </mxGeometry>
                </mxCell>
                <mxCell id="51" value="" style="endArrow=none;html=1;entryX=0.038;entryY=0.69;entryDx=0;entryDy=0;entryPerimeter=0;exitX=0.99;exitY=0.357;exitDx=0;exitDy=0;exitPerimeter=0;shadow=1;" parent="1" source="19" target="49" edge="1">
                    <mxGeometry width="50" height="50" relative="1" as="geometry">
                        <mxPoint x="594" y="537" as="sourcePoint"/>
                        <mxPoint x="808" y="503" as="targetPoint"/>
                    </mxGeometry>
                </mxCell>
                <mxCell id="52" value="" style="endArrow=none;html=1;entryX=0.093;entryY=0.814;entryDx=0;entryDy=0;entryPerimeter=0;exitX=0.98;exitY=0.386;exitDx=0;exitDy=0;exitPerimeter=0;shadow=1;" parent="1" source="20" target="49" edge="1">
                    <mxGeometry width="50" height="50" relative="1" as="geometry">
                        <mxPoint x="593" y="617" as="sourcePoint"/>
                        <mxPoint x="817" y="522" as="targetPoint"/>
                    </mxGeometry>
                </mxCell>
                <mxCell id="53" value="" style="endArrow=none;html=1;entryX=0.252;entryY=0.931;entryDx=0;entryDy=0;entryPerimeter=0;exitX=0.95;exitY=0.4;exitDx=0;exitDy=0;exitPerimeter=0;shadow=1;" parent="1" source="23" target="49" edge="1">
                    <mxGeometry width="50" height="50" relative="1" as="geometry">
                        <mxPoint x="596" y="707" as="sourcePoint"/>
                        <mxPoint x="825" y="540" as="targetPoint"/>
                    </mxGeometry>
                </mxCell>
                <mxCell id="54" value="" style="endArrow=none;html=1;entryX=0.438;entryY=1.007;entryDx=0;entryDy=0;entryPerimeter=0;exitX=0.93;exitY=0.2;exitDx=0;exitDy=0;exitPerimeter=0;shadow=1;" parent="1" source="24" target="49" edge="1">
                    <mxGeometry width="50" height="50" relative="1" as="geometry">
                        <mxPoint x="589" y="810" as="sourcePoint"/>
                        <mxPoint x="848" y="557" as="targetPoint"/>
                    </mxGeometry>
                </mxCell>
                <mxCell id="55" value="" style="endArrow=none;html=1;exitX=0.07;exitY=0.257;exitDx=0;exitDy=0;entryX=1;entryY=0.5;entryDx=0;entryDy=0;exitPerimeter=0;shadow=1;" parent="1" source="13" target="47" edge="1">
                    <mxGeometry width="50" height="50" relative="1" as="geometry">
                        <mxPoint x="579" y="202" as="sourcePoint"/>
                        <mxPoint x="858" y="426" as="targetPoint"/>
                    </mxGeometry>
                </mxCell>
                <mxCell id="56" value="" style="endArrow=none;html=1;exitX=0;exitY=0.5;exitDx=0;exitDy=0;entryX=0.631;entryY=0.021;entryDx=0;entryDy=0;entryPerimeter=0;shadow=1;" parent="1" source="13" target="48" edge="1">
                    <mxGeometry width="50" height="50" relative="1" as="geometry">
                        <mxPoint x="501" y="160" as="sourcePoint"/>
                        <mxPoint x="272" y="195" as="targetPoint"/>
                    </mxGeometry>
                </mxCell>
                <mxCell id="57" value="" style="endArrow=none;html=1;exitX=0.03;exitY=0.614;exitDx=0;exitDy=0;entryX=0.776;entryY=0.076;entryDx=0;entryDy=0;entryPerimeter=0;exitPerimeter=0;shadow=1;" parent="1" source="14" target="48" edge="1">
                    <mxGeometry width="50" height="50" relative="1" as="geometry">
                        <mxPoint x="494" y="177" as="sourcePoint"/>
                        <mxPoint x="218" y="675" as="targetPoint"/>
                    </mxGeometry>
                </mxCell>
                <mxCell id="58" value="" style="endArrow=none;html=1;exitX=0.06;exitY=0.671;exitDx=0;exitDy=0;entryX=0.921;entryY=0.186;entryDx=0;entryDy=0;entryPerimeter=0;exitPerimeter=0;shadow=1;" parent="1" source="21" target="48" edge="1">
                    <mxGeometry width="50" height="50" relative="1" as="geometry">
                        <mxPoint x="499" y="260" as="sourcePoint"/>
                        <mxPoint x="239" y="683" as="targetPoint"/>
                    </mxGeometry>
                </mxCell>
                <mxCell id="59" value="" style="endArrow=none;html=1;exitX=0.03;exitY=0.629;exitDx=0;exitDy=0;entryX=0.941;entryY=0.262;entryDx=0;entryDy=0;entryPerimeter=0;exitPerimeter=0;shadow=1;" parent="1" source="22" target="48" edge="1">
                    <mxGeometry width="50" height="50" relative="1" as="geometry">
                        <mxPoint x="500" y="369" as="sourcePoint"/>
                        <mxPoint x="260" y="699" as="targetPoint"/>
                    </mxGeometry>
                </mxCell>
                <mxCell id="60" value="" style="endArrow=none;html=1;exitX=0.03;exitY=0.371;exitDx=0;exitDy=0;entryX=0.948;entryY=0.331;entryDx=0;entryDy=0;entryPerimeter=0;exitPerimeter=0;shadow=1;" parent="1" source="17" target="48" edge="1">
                    <mxGeometry width="50" height="50" relative="1" as="geometry">
                        <mxPoint x="494" y="432" as="sourcePoint"/>
                        <mxPoint x="263" y="710" as="targetPoint"/>
                    </mxGeometry>
                </mxCell>
                <mxCell id="63" value="Adicionar Peladeiros" style="ellipse;whiteSpace=wrap;html=1;shadow=1;" parent="1" vertex="1">
                    <mxGeometry x="484" y="312" width="100" height="70" as="geometry"/>
                </mxCell>
                <mxCell id="64" value="" style="endArrow=none;html=1;exitX=0.95;exitY=0.371;exitDx=0;exitDy=0;exitPerimeter=0;entryX=0;entryY=0;entryDx=0;entryDy=0;shadow=1;" parent="1" source="63" target="49" edge="1">
                    <mxGeometry width="50" height="50" relative="1" as="geometry">
                        <mxPoint x="588" y="256" as="sourcePoint"/>
                        <mxPoint x="846" y="436" as="targetPoint"/>
                    </mxGeometry>
                </mxCell>
                <mxCell id="65" value="" style="endArrow=none;html=1;exitX=0.03;exitY=0.686;exitDx=0;exitDy=0;entryX=0.817;entryY=0.097;entryDx=0;entryDy=0;entryPerimeter=0;exitPerimeter=0;shadow=1;" parent="1" source="63" target="48" edge="1">
                    <mxGeometry width="50" height="50" relative="1" as="geometry">
                        <mxPoint x="499" y="260" as="sourcePoint"/>
                        <mxPoint x="239" y="683" as="targetPoint"/>
                    </mxGeometry>
                </mxCell>
            </root>
        </mxGraphModel>
    </diagram>
</mxfile>